<svg xmlns="http://www.w3.org/2000/svg" viewBox="466 535 287 98" role="img" aria-label="STEM Racing"><defs><linearGradient id="g" gradientUnits="userSpaceOnUse" x1="476" y1="535" x2="544" y2="633"><stop offset="0" stop-color="#8E2A94"/><stop offset="0.42" stop-color="#E6007E"/><stop offset="0.72" stop-color="#F28A00"/><stop offset="1" stop-color="#FDB813"/></linearGradient></defs><path fill="url(#g)" d="M482.05 577.04L475.16 577.74C474.35 577.76 473.89 576.97 473.68 576.49C473.47 576.00 473.14 574.94 473.36 573.42C473.60 571.79 474.40 570.53 475.32 570.36L485.10 568.57L489.73 567.71L502.70 546.33L491.20 550.32L487.57 551.58L475.46 555.78C471.08 557.30 467.57 563.68 466.61 571.17C465.97 576.16 466.49 581.14 468.04 585.04C469.64 589.06 472.18 591.51 475.12 591.68L479.21 591.90L479.21 591.90L481.80 592.04C482.80 592.09 483.38 593.07 483.64 593.65C483.90 594.24 484.29 595.46 484.00 597.04C483.69 598.70 482.73 599.75 481.68 599.61L466.26 597.54L477.67 612.84L481.44 613.92C486.68 615.41 491.94 610.82 493.80 602.25C495.12 596.10 494.40 589.41 491.85 584.21C489.40 579.21 485.77 576.66 482.05 577.04M518.14 594.05L522.99 594.32C534.30 594.95 546.68 586.01 551.71 571.61C555.41 561.02 554.12 550.50 548.31 543.56C542.84 537.03 534.64 535.26 526.37 538.12L507.85 544.55L494.24 566.88L524.98 561.23C527.14 560.84 528.35 562.06 528.88 562.83C529.41 563.60 530.20 565.30 529.46 567.85C528.69 570.53 526.54 572.54 524.29 572.77L505.23 574.70C501.82 575.04 498.84 578.00 497.49 582.13C496.19 586.15 496.64 590.69 498.64 593.89L518.84 624.58L547.36 632.70L518.14 594.05"/><path fill="#fff" d="M594.62 570.65C594.80 569.67 594.89 568.77 594.89 567.96C594.89 564.38 593.15 562.50 589.65 561.38L579.75 558.15C578.32 557.66 577.74 556.99 577.74 556.09C577.74 554.48 578.68 553.45 580.42 553.45L596.64 553.45L597.98 547.18L578.63 547.18C572.99 547.18 570.48 549.91 569.67 554.66C569.49 555.69 569.40 556.67 569.40 557.62C569.40 560.75 570.66 562.90 573.57 563.89L584.59 567.56C586.07 568.05 586.52 568.72 586.52 569.53C586.52 571.32 585.53 572.26 583.78 572.26L566.40 572.26L565.06 578.53L585.75 578.53C591.53 578.53 593.73 575.67 594.62 570.65M606.12 578.53L614.18 578.53L619.52 553.45L631.27 553.45L632.61 547.18L601.04 547.18L599.70 553.45L611.45 553.45L606.12 578.53M629.80 575.04C629.80 577.19 631.19 578.53 633.65 578.53L655.95 578.53L657.25 572.44L640.37 572.44C639.12 572.44 638.63 572.13 638.63 571.19C638.63 570.96 638.67 570.65 638.72 570.34L639.75 565.54L658.15 565.54L659.40 559.72L641.00 559.72L641.90 555.38C642.26 553.81 642.88 553.27 644.45 553.27L661.15 553.27L662.45 547.18L640.33 547.18C636.97 547.18 635.27 548.66 634.55 552.02L629.94 573.74C629.85 574.19 629.80 574.64 629.80 575.04M672.61 556.81C672.66 556.58 672.84 555.82 673.28 555.82C673.55 555.82 673.64 556.36 673.73 556.90L677.76 574.91C678.12 577.33 678.89 578.89 682.48 578.89C686.02 578.89 687.55 577.33 688.94 574.91L700.62 556.90C700.98 556.27 701.30 555.82 701.52 555.82C701.70 555.82 701.83 556.00 701.83 556.36C701.83 556.50 701.83 556.63 701.79 556.81L696.91 578.53L704.97 578.53L710.70 551.66C710.79 551.25 710.84 550.85 710.84 550.45C710.84 548.48 709.27 546.82 704.97 546.82C701.88 546.82 699.06 547.89 697.04 551.43L685.36 569.53C684.76 570.48 684.45 571.11 683.91 571.11C683.36 571.11 683.14 570.20 683.00 569.53L678.88 551.43C678.35 547.85 676.06 546.82 672.93 546.82C670.55 546.82 666.79 547.45 665.89 551.66L660.16 578.53L668.22 578.53L672.61 556.81M581.64 607.64C587.86 607.64 590.19 603.16 591.00 597.56C591.13 596.53 591.22 595.18 591.22 594.42C591.22 589.45 589.16 586.54 583.97 586.54L568.11 586.54C564.75 586.54 563.05 588.02 562.33 591.38L556.69 617.89L564.75 617.89L569.63 594.91C569.99 593.35 570.62 592.81 572.18 592.81L579.67 592.81C582.04 592.81 582.98 593.44 582.98 595.23C582.98 595.77 582.89 596.39 582.76 597.11C582.08 600.25 581.10 601.77 578.10 601.77L575.45 601.77C572.54 601.77 570.66 602.22 570.21 604.59C570.12 605.08 570.03 605.44 570.03 605.71C570.03 607.01 571.06 608.49 571.96 609.74L577.74 617.89L587.19 617.89L579.35 607.86L579.40 607.64L581.64 607.64M604.31 604.64L610.41 594.69C610.68 594.20 610.99 593.71 611.30 593.71C611.62 593.71 611.62 594.20 611.71 594.69L613.59 604.64L604.31 604.64M612.42 586.18C608.57 586.18 607.05 587.39 605.48 589.85L587.87 617.89L596.70 617.89L601.04 610.73L614.26 610.73L615.56 617.89L623.58 617.89L617.80 589.85C617.17 586.81 615.24 586.18 612.42 586.18M633.24 606.56C633.24 605.40 633.46 603.96 633.82 602.22C635.43 594.60 637.85 592.81 645.02 592.81L653.12 592.81L654.47 586.54L642.37 586.54C631.40 586.54 627.68 591.47 625.62 601.32C625.17 603.38 624.99 605.31 624.99 607.05C624.99 613.68 628.26 617.90 636.60 617.90L648.24 617.90L649.58 611.62L641.60 611.62C636.09 611.62 633.24 610.55 633.24 606.56M658.44 586.54L651.77 617.89L659.83 617.89L666.50 586.54L658.44 586.54M696.01 586.54L691.57 607.46C691.53 607.68 691.40 608.22 690.90 608.22C690.50 608.22 690.41 607.77 690.28 607.46L682.35 588.87C681.45 586.76 679.39 586.18 677.15 586.18C673.84 586.18 670.97 587.25 670.16 591.11L664.47 617.89L671.73 617.89L676.17 597.11C676.34 596.30 676.70 596.21 676.88 596.21C677.11 596.21 677.33 596.44 677.60 596.97L685.44 615.39C686.51 617.94 688.66 618.25 690.81 618.25C695.38 618.25 697.04 615.83 697.58 613.24L703.27 586.54L696.01 586.54M721.98 592.81L734.83 592.81L736.18 586.54L720.23 586.54C708.81 586.54 705.40 591.42 703.48 601.32C703.07 603.38 702.89 605.31 702.89 607.05C702.89 613.68 706.12 617.90 714.45 617.90L725.47 617.90C728.83 617.90 730.53 616.46 731.25 613.10L733.62 601.95L725.56 601.95L723.95 609.52C723.63 611.09 722.96 611.62 721.39 611.62L717.99 611.62C713.20 611.62 711.14 610.46 711.14 606.56C711.14 605.40 711.32 603.96 711.67 602.22C713.24 594.83 715.71 592.81 721.98 592.81"/></svg>